<svg width="390" height="844" viewBox="0 0 390 844" fill="none" xmlns="http://www.w3.org/2000/svg">
  <rect width="390" height="844" rx="40" fill="#F7F5FF" />
  <text x="24" y="96" font-family="Inter, Arial" font-size="24" font-weight="700" fill="#1F1F1F">Perfil</text>

  <rect x="24" y="130" width="342" height="96" rx="18" fill="#FFFFFF" />
  <circle cx="68" cy="178" r="28" fill="#FBE5F0" />
  <text x="60" y="184" font-family="Inter, Arial" font-size="18" font-weight="700" fill="#E8458B">L</text>
  <text x="112" y="170" font-family="Inter, Arial" font-size="14" font-weight="600" fill="#1F1F1F">Laura Gómez</text>
  <text x="112" y="192" font-family="Inter, Arial" font-size="12" fill="#6D6B75">Plan activo: Energia Total</text>

  <text x="24" y="254" font-family="Inter, Arial" font-size="16" font-weight="700" fill="#1F1F1F">Objetivos</text>
  <rect x="24" y="270" width="342" height="48" rx="14" fill="#FFFFFF" />
  <text x="40" y="298" font-family="Inter, Arial" font-size="13" fill="#1F1F1F">Hidratación</text>
  <text x="290" y="298" font-family="Inter, Arial" font-size="12" fill="#6D6B75">6/8 vasos</text>

  <rect x="24" y="328" width="342" height="48" rx="14" fill="#FFFFFF" />
  <text x="40" y="356" font-family="Inter, Arial" font-size="13" fill="#1F1F1F">Pasos</text>
  <text x="278" y="356" font-family="Inter, Arial" font-size="12" fill="#6D6B75">7,200 / 10,000</text>

  <rect x="24" y="386" width="342" height="48" rx="14" fill="#FFFFFF" />
  <text x="40" y="414" font-family="Inter, Arial" font-size="13" fill="#1F1F1F">Sueño</text>
  <text x="294" y="414" font-family="Inter, Arial" font-size="12" fill="#6D6B75">7h 20m</text>

  <text x="24" y="462" font-family="Inter, Arial" font-size="16" font-weight="700" fill="#1F1F1F">Preferencias</text>
  <rect x="24" y="478" width="342" height="48" rx="14" fill="#FFFFFF" />
  <text x="40" y="506" font-family="Inter, Arial" font-size="13" fill="#1F1F1F">Recordatorios diarios</text>
  <rect x="300" y="490" width="50" height="24" rx="12" fill="#E8458B" />
  <circle cx="336" cy="502" r="10" fill="#FFFFFF" />

  <rect x="24" y="536" width="342" height="48" rx="14" fill="#FFFFFF" />
  <text x="40" y="564" font-family="Inter, Arial" font-size="13" fill="#1F1F1F">Modo descanso</text>
  <rect x="300" y="548" width="50" height="24" rx="12" fill="#E3E0EA" />
  <circle cx="314" cy="560" r="10" fill="#FFFFFF" />

  <rect x="0" y="780" width="390" height="64" fill="#FFFFFF" />
  <circle cx="78" cy="812" r="8" fill="#CFCBD9" />
  <circle cx="170" cy="812" r="8" fill="#CFCBD9" />
  <circle cx="250" cy="812" r="8" fill="#CFCBD9" />
  <circle cx="318" cy="812" r="12" fill="#E8458B" />
</svg>
